<?xml version="1.0" encoding="UTF-8" standalone="no"?>
<svg xmlns="http://www.w3.org/2000/svg" xmlns:xlink="http://www.w3.org/1999/xlink" width="1000" height="1000" viewBox="0 0 264.58333 264.58334">
  <defs>
    <linearGradient id="a">
      <stop offset="0" stop-color="#ffffff"/>
      <stop offset="1" stop-color="#ffffff" stop-opacity="0"/>
    </linearGradient>
    <radialGradient xlink:href="#a" id="b" cx="132.29167" cy="164.70831" fx="132.29167" fy="164.70831" r="132.29167" gradientUnits="userSpaceOnUse" gradientTransform="translate(-1.9130469e-6,5.4753647e-6)"/>
  </defs>
  <g transform="translate(0,-32.41665)">
    <path d="m 131.13722,32.421679 a 132.29167,132.29167 0 0 1 2.53979,0.0022 l -1.38534,132.284415 z" fill="#ff0000"/>
    <path d="m 133.44612,32.421694 a 132.29167,132.29167 0 0 1 2.53935,0.04654 l -3.6938,132.240095 z" fill="#ff0400"/>
    <path d="m 135.75466,32.461989 a 132.29167,132.29167 0 0 1 2.53815,0.09085 l -6.00114,132.155489 z" fill="#ff0900"/>
    <path d="m 138.06215,32.542569 a 132.29167,132.29167 0 0 1 2.53618,0.135135 l -8.30666,132.030626 z" fill="#ff0d00"/>
    <path d="m 140.36788,32.663407 a 132.29167,132.29167 0 0 1 2.53344,0.179377 L 132.29167,164.70833 Z" fill="#ff1100"/>
    <path d="m 142.67116,32.824468 a 132.29167,132.29167 0 0 1 2.52991,0.223563 l -12.9094,131.660299 z" fill="#ff1500"/>
    <path d="m 144.97127,33.025701 a 132.29167,132.29167 0 0 1 2.52563,0.267683 L 132.29167,164.70833 Z" fill="#ff1a00"/>
    <path d="m 147.26752,33.267047 a 132.29167,132.29167 0 0 1 2.52057,0.31172 L 132.29167,164.70833 Z" fill="#ff1e00"/>
    <path d="m 149.5592,33.548431 a 132.29167,132.29167 0 0 1 2.51475,0.355663 L 132.29167,164.70833 Z" fill="#ff2200"/>
    <path d="m 151.84563,33.869767 a 132.29167,132.29167 0 0 1 2.50816,0.399497 L 132.29167,164.70833 Z" fill="#ff2600"/>
    <path d="m 154.1261,34.230958 a 132.29167,132.29167 0 0 1 2.50081,0.44321 L 132.29167,164.70833 Z" fill="#ff2b00"/>
    <path d="m 156.39992,34.631894 a 132.29167,132.29167 0 0 1 2.49269,0.486788 L 132.29167,164.70833 Z" fill="#ff2f00"/>
    <path d="m 158.66638,35.07245 a 132.29167,132.29167 0 0 1 2.48383,0.530219 L 132.29167,164.70833 Z" fill="#ff3300"/>
    <path d="m 160.92483,35.552496 a 132.29167,132.29167 0 0 1 2.47419,0.573488 L 132.29167,164.70833 Z" fill="#ff3700"/>
    <path d="m 163.17455,36.071885 a 132.29167,132.29167 0 0 1 2.4638,0.616581 L 132.29167,164.70833 Z" fill="#ff3c00"/>
    <path d="m 165.41486,36.630458 a 132.29167,132.29167 0 0 1 2.45266,0.659483 L 132.29167,164.70833 Z" fill="#ff4000"/>
    <path d="m 167.64508,37.228044 a 132.29167,132.29167 0 0 1 2.44078,0.702187 L 132.29167,164.70833 Z" fill="none"/>
    <path d="m 167.64508,37.228044 a 132.29167,132.29167 0 0 1 2.44078,0.702187 L 132.29167,164.70833 Z" fill="#ff4400"/>
    <path d="m 169.86454,37.864462 a 132.29167,132.29167 0 0 1 2.42815,0.744678 l -40.00102,126.09919 z" fill="#ff4800"/>
    <path d="m 172.07254,38.539518 a 132.29167,132.29167 0 0 1 2.41479,0.786942 l -42.19566,125.38187 z" fill="#ff4d00"/>
    <path d="m 174.26844,39.253007 a 132.29167,132.29167 0 0 1 2.40068,0.828965 L 132.29167,164.70833 Z" fill="#ff5100"/>
    <path d="m 176.45154,40.00471 a 132.29167,132.29167 0 0 1 2.38585,0.870737 L 132.29167,164.70833 Z" fill="#ff5500"/>
    <path d="m 178.62119,40.7944 a 132.29167,132.29167 0 0 1 2.37029,0.912243 L 132.29167,164.70833 Z" fill="#ff5900"/>
    <path d="m 180.77674,41.621834 a 132.29167,132.29167 0 0 1 2.354,0.953472 L 132.29167,164.70833 Z" fill="#ff5e00"/>
    <path d="m 182.91751,42.486762 a 132.29167,132.29167 0 0 1 2.33701,0.99441 L 132.29167,164.70833 Z" fill="#ff6200"/>
    <path d="m 185.04286,43.38892 a 132.29167,132.29167 0 0 1 2.3193,1.035045 L 132.29167,164.70833 Z" fill="#ff6600"/>
    <path d="m 187.15213,44.328028 a 132.29167,132.29167 0 0 1 2.30089,1.075369 L 132.29167,164.70833 Z" fill="#ff6a00"/>
    <path d="m 189.2447,45.30381 a 132.29167,132.29167 0 0 1 2.28177,1.115362 l -59.2348,118.289158 z" fill="#ff6f00"/>
    <path d="m 191.31992,46.315964 a 132.29167,132.29167 0 0 1 2.26196,1.155014 L 132.29167,164.70833 Z" fill="#ff7300"/>
    <path d="m 193.37716,47.364181 a 132.29167,132.29167 0 0 1 2.24145,1.194309 l -63.32694,116.14984 z" fill="#ff7700"/>
    <path d="m 195.4158,48.448142 a 132.29167,132.29167 0 0 1 2.22026,1.233246 L 132.29167,164.70833 Z" fill="#ff7b00"/>
    <path d="m 197.43521,49.567518 a 132.29167,132.29167 0 0 1 2.1984,1.271806 L 132.29167,164.70833 Z" fill="#ff8000"/>
    <path d="m 199.43477,50.721966 a 132.29167,132.29167 0 0 1 2.17587,1.309981 L 132.29167,164.70833 Z" fill="#ff8400"/>
    <path d="m 201.41388,51.911136 a 132.29167,132.29167 0 0 1 2.15268,1.347755 L 132.29167,164.70833 Z" fill="#ff8800"/>
    <path d="m 203.37194,53.134665 a 132.29167,132.29167 0 0 1 2.12882,1.385119 L 132.29167,164.70833 Z" fill="#ff8c00"/>
    <path d="m 205.30834,54.39218 a 132.29167,132.29167 0 0 1 2.10433,1.422062 l -75.121,108.894088 z" fill="#ff9100"/>
    <path d="m 207.2225,55.683299 a 132.29167,132.29167 0 0 1 2.07919,1.458571 l -77.01002,107.56646 z" fill="#ff9500"/>
    <path d="m 209.11384,57.007628 a 132.29167,132.29167 0 0 1 2.05342,1.494635 L 132.29167,164.70833 Z" fill="#ff9900"/>
    <path d="m 210.98178,58.364764 a 132.29167,132.29167 0 0 1 2.02702,1.530244 L 132.29167,164.70833 Z" fill="#ff9d00"/>
    <path d="m 212.82573,59.754285 a 132.29167,132.29167 0 0 1 2.00002,1.565396 L 132.29167,164.70833 Z" fill="#ffa200"/>
    <path d="m 214.64517,61.175783 a 132.29167,132.29167 0 0 1 1.97239,1.600063 L 132.29167,164.70833 Z" fill="#ffa600"/>
    <path d="m 216.43952,62.628819 a 132.29167,132.29167 0 0 1 1.94417,1.634242 L 132.29167,164.70833 Z" fill="#ffaa00"/>
    <path d="m 218.20824,64.112949 a 132.29167,132.29167 0 0 1 1.91534,1.667915 l -87.83191,98.927466 z" fill="#ffae00"/>
    <path d="m 219.95078,65.627722 a 132.29167,132.29167 0 0 1 1.88594,1.701088 l -89.54505,97.37952 z" fill="#ffb300"/>
    <path d="m 221.66663,67.172676 a 132.29167,132.29167 0 0 1 1.85596,1.733743 l -91.23092,95.801911 z" fill="#ffb700"/>
    <path d="m 223.35525,68.74734 a 132.29167,132.29167 0 0 1 1.82542,1.76587 l -92.889,94.19512 z" fill="#ffbb00"/>
    <path d="m 223.35525,68.74734 a 132.29167,132.29167 0 0 1 1.82542,1.76587 l -92.889,94.19512 z" fill="#ffbb00"/>
    <path d="m 225.01613,70.351234 a 132.29167,132.29167 0 0 1 1.79433,1.797459 l -94.51879,92.559637 z" fill="#ffbf00"/>
    <path d="m 226.64877,71.983871 a 132.29167,132.29167 0 0 1 1.76268,1.828501 l -96.11978,90.895958 z" fill="#ffc400"/>
    <path d="m 228.25266,73.644752 a 132.29167,132.29167 0 0 1 1.7305,1.858986 l -97.69149,89.204592 z" fill="#ffc800"/>
    <path d="m 229.82733,75.333373 a 132.29167,132.29167 0 0 1 1.69779,1.888903 l -99.23345,87.486054 z" fill="#ffcc00"/>
    <path d="m 231.37228,77.049218 a 132.29167,132.29167 0 0 1 1.66457,1.918246 L 132.29167,164.70833 Z" fill="#ffd000"/>
    <path d="m 232.88705,78.791764 a 132.29167,132.29167 0 0 1 1.63084,1.947005 L 132.29167,164.70833 Z" fill="#ffd500"/>
    <path d="m 234.37118,80.560482 a 132.29167,132.29167 0 0 1 1.59661,1.975171 L 132.29167,164.70833 Z" fill="#ffd900"/>
    <path d="m 235.82421,82.354822 a 132.29167,132.29167 0 0 1 1.5619,2.002745 L 132.29167,164.70833 Z" fill="#ffdd00"/>
    <path d="m 237.24571,84.174257 a 132.29167,132.29167 0 0 1 1.52671,2.029699 L 132.29167,164.70833 Z" fill="#ffe100"/>
    <path d="m 238.63524,86.018224 a 132.29167,132.29167 0 0 1 1.49105,2.056035 L 132.29167,164.70833 Z" fill="#ffe600"/>
    <path d="m 239.99237,87.886161 a 132.29167,132.29167 0 0 1 1.45494,2.081733 L 132.29167,164.70833 Z" fill="#ffea00"/>
    <path d="m 241.3167,89.777499 a 132.29167,132.29167 0 0 1 1.41839,2.106808 L 132.29167,164.70833 Z" fill="#ffee00"/>
    <path d="m 242.60782,91.691661 a 132.29167,132.29167 0 0 1 1.3814,2.131241 L 132.29167,164.70833 Z" fill="#fff200"/>
    <path d="m 243.86534,93.628065 a 132.29167,132.29167 0 0 1 1.34399,2.155026 L 132.29167,164.70833 Z" fill="#fff700"/>
    <path d="m 245.08886,95.58612 a 132.29167,132.29167 0 0 1 1.30619,2.178154 L 132.29167,164.70833 Z" fill="#fffb00"/>
    <path d="m 246.27803,97.565231 a 132.29167,132.29167 0 0 1 1.26797,2.200618 L 132.29167,164.70833 Z" fill="#ffff00"/>
    <path d="m 247.43248,99.564795 a 132.29167,132.29167 0 0 1 1.22937,2.222415 l -116.37018,62.92112 z" fill="#fbff00"/>
    <path d="m 248.55186,101.5842 a 132.29167,132.29167 0 0 1 1.19039,2.24353 l -117.45058,60.8806 z" fill="#f7ff00"/>
    <path d="m 249.63582,103.62284 a 132.29167,132.29167 0 0 1 1.15106,2.26396 l -118.49521,58.82153 z" fill="#f2ff00"/>
    <path d="m 250.68404,105.68008 a 132.29167,132.29167 0 0 1 1.11137,2.28371 l -119.50374,56.74454 z" fill="#eeff00"/>
    <path d="m 251.69619,107.75529 a 132.29167,132.29167 0 0 1 1.07135,2.30277 l -120.47587,54.65027 z" fill="#eaff00"/>
    <path d="m 252.67197,109.84786 a 132.29167,132.29167 0 0 1 1.031,2.32111 l -121.4113,52.53936 z" fill="#e6ff00"/>
    <path d="m 253.61108,111.95714 a 132.29167,132.29167 0 0 1 0.99033,2.33876 l -122.30974,50.41243 z" fill="#e1ff00"/>
    <path d="m 254.51324,114.08249 a 132.29167,132.29167 0 0 1 0.94936,2.35567 l -123.17093,48.27017 z" fill="#ddff00"/>
    <path d="m 255.37817,116.22327 a 132.29167,132.29167 0 0 1 0.9081,2.37187 l -123.9946,46.11319 z" fill="#d9ff00"/>
    <path d="m 256.2056,118.37881 a 132.29167,132.29167 0 0 1 0.86657,2.38736 l -124.7805,43.94216 z" fill="#d5ff00"/>
    <path d="m 256.99529,120.54846 a 132.29167,132.29167 0 0 1 0.82477,2.40213 l -125.52839,41.75774 z" fill="#d0ff00"/>
    <path d="m 257.74699,122.73157 a 132.29167,132.29167 0 0 1 0.78273,2.41615 l -126.23805,39.56061 z" fill="#ccff00"/>
    <path d="m 258.46048,124.92746 a 132.29167,132.29167 0 0 1 0.74044,2.42944 l -126.90925,37.35143 z" fill="#c8ff00"/>
    <path d="m 259.13554,127.13547 a 132.29167,132.29167 0 0 1 0.69792,2.442 l -127.54179,35.13086 z" fill="#c4ff00"/>
    <path d="m 259.77196,129.35492 a 132.29167,132.29167 0 0 1 0.6552,2.45381 l -128.13549,32.8996 z" fill="#bfff00"/>
    <path d="m 260.36954,131.58514 a 132.29167,132.29167 0 0 1 0.61228,2.46487 l -128.69015,30.65832 z" fill="#bbff00"/>
    <path d="m 260.92812,133.82546 a 132.29167,132.29167 0 0 1 0.56916,2.47518 l -129.20561,28.40769 z" fill="#b7ff00"/>
    <path d="m 261.4475,136.07518 a 132.29167,132.29167 0 0 1 0.52588,2.48473 l -129.68171,26.14842 z" fill="#b3ff00"/>
    <path d="m 261.92755,138.33361 a 132.29167,132.29167 0 0 1 0.48244,2.49354 l -130.11832,23.88118 z" fill="#aeff00"/>
    <path d="m 262.36811,140.60008 a 132.29167,132.29167 0 0 1 0.43884,2.50159 l -130.51528,21.60666 z" fill="#aaff00"/>
    <path d="m 262.76904,142.8739 a 132.29167,132.29167 0 0 1 0.39512,2.50887 l -130.87249,19.32556 z" fill="#a6ff00"/>
    <path d="m 263.13023,145.15437 a 132.29167,132.29167 0 0 1 0.35128,2.51537 l -131.18984,17.03859 z" fill="#a2ff00"/>
    <path d="m 263.45157,147.4408 a 132.29167,132.29167 0 0 1 0.30732,2.52111 l -131.46722,14.74642 z" fill="#9eff00"/>
    <path d="m 263.73295,149.73249 a 132.29167,132.29167 0 0 1 0.26328,2.52609 l -131.70456,12.44975 z" fill="#99ff00"/>
    <path d="m 263.9743,152.02873 a 132.29167,132.29167 0 0 1 0.21915,2.53031 l -131.90178,10.14929 z" fill="#95ff00"/>
    <path d="m 264.17553,154.32884 a 132.29167,132.29167 0 0 1 0.17496,2.53375 l -132.05882,7.84574 z" fill="#91ff00"/>
    <path d="m 264.33659,156.63212 a 132.29167,132.29167 0 0 1 0.13071,2.53641 l -132.17563,5.5398 z" fill="#8cff00"/>
    <path d="m 264.45743,158.93785 a 132.29167,132.29167 0 0 1 0.0864,2.5383 l -132.25218,3.23218 z" fill="#88ff00"/>
    <path d="m 264.53801,161.24534 a 132.29167,132.29167 0 0 1 0.0421,2.53943 l -132.28845,0.92356 z" fill="#84ff00"/>
    <path d="m 264.57831,163.55389 a 132.29167,132.29167 0 0 1 -0.002,2.53977 l -132.28442,-1.38533 z" fill="#80ff00"/>
    <path d="m 264.57831,165.86278 a 132.29167,132.29167 0 0 1 -0.0465,2.53935 l -132.24009,-3.6938 z" fill="#7bff00"/>
    <path d="m 264.53801,168.17132 a 132.29167,132.29167 0 0 1 -0.0908,2.53815 l -132.15549,-6.00114 z" fill="#77ff00"/>
    <path d="m 264.45743,170.47881 a 132.29167,132.29167 0 0 1 -0.13513,2.53618 l -132.03063,-8.30666 z" fill="#73ff00"/>
    <path d="m 264.33659,172.78454 a 132.29167,132.29167 0 0 1 -0.17937,2.53344 L 132.29167,164.70833 Z" fill="#6fff00"/>
    <path d="m 264.17553,175.08781 a 132.29167,132.29167 0 0 1 -0.22356,2.52992 l -131.6603,-12.9094 z" fill="#6aff00"/>
    <path d="m 263.9743,177.38792 a 132.29167,132.29167 0 0 1 -0.26768,2.52564 L 132.29167,164.70833 Z" fill="#66ff00"/>
    <path d="m 263.73295,179.68417 a 132.29167,132.29167 0 0 1 -0.31172,2.52058 L 132.29167,164.70833 Z" fill="#62ff00"/>
    <path d="m 263.45157,181.97586 a 132.29167,132.29167 0 0 1 -0.35566,2.51475 L 132.29167,164.70833 Z" fill="#5eff00"/>
    <path d="m 263.13023,184.26228 a 132.29167,132.29167 0 0 1 -0.39949,2.50816 L 132.29167,164.70833 Z" fill="#59ff00"/>
    <path d="m 262.76904,186.54275 a 132.29167,132.29167 0 0 1 -0.44321,2.50081 L 132.29167,164.70833 Z" fill="#55ff00"/>
    <path d="m 262.36811,188.81657 a 132.29167,132.29167 0 0 1 -0.48679,2.49269 L 132.29167,164.70833 Z" fill="#51ff00"/>
    <path d="m 261.92755,191.08305 a 132.29167,132.29167 0 0 1 -0.53022,2.48381 L 132.29167,164.70833 Z" fill="#4dff00"/>
    <path d="m 261.4475,193.34149 a 132.29167,132.29167 0 0 1 -0.57348,2.47418 L 132.29167,164.70833 Z" fill="#48ff00"/>
    <path d="m 260.92811,195.59121 a 132.29167,132.29167 0 0 1 -0.61657,2.46379 L 132.29167,164.70833 Z" fill="#44ff00"/>
    <path d="m 260.36954,197.83152 a 132.29167,132.29167 0 0 1 -0.65948,2.45266 L 132.29167,164.70833 Z" fill="#40ff00"/>
    <path d="m 259.77196,200.06174 a 132.29167,132.29167 0 0 1 -0.70219,2.44078 l -126.7781,-37.79419 z" fill="#3cff00"/>
    <path d="m 259.13554,202.28119 a 132.29167,132.29167 0 0 1 -0.74468,2.42816 L 132.29167,164.70833 Z" fill="#37ff00"/>
    <path d="m 258.46048,204.4892 a 132.29167,132.29167 0 0 1 -0.78694,2.41479 L 132.29167,164.70833 Z" fill="#33ff00"/>
    <path d="m 257.74699,206.68509 a 132.29167,132.29167 0 0 1 -0.82896,2.40069 L 132.29167,164.70833 Z" fill="#2fff00"/>
    <path d="m 256.99529,208.8682 a 132.29167,132.29167 0 0 1 -0.87074,2.38585 L 132.29167,164.70833 Z" fill="#2bff00"/>
    <path d="m 256.2056,211.03785 a 132.29167,132.29167 0 0 1 -0.91224,2.37029 L 132.29167,164.70833 Z" fill="#26ff00"/>
    <path d="m 255.37817,213.19339 a 132.29167,132.29167 0 0 1 -0.95348,2.35401 L 132.29167,164.70833 Z" fill="#22ff00"/>
    <path d="m 254.51324,215.33416 a 132.29167,132.29167 0 0 1 -0.99441,2.33701 L 132.29167,164.70833 Z" fill="#1eff00"/>
    <path d="m 253.61108,217.45951 a 132.29167,132.29167 0 0 1 -1.03504,2.3193 L 132.29167,164.70833 Z" fill="#1aff00"/>
    <path d="m 252.67197,219.56879 a 132.29167,132.29167 0 0 1 -1.07537,2.30088 L 132.29167,164.70833 Z" fill="#15ff00"/>
    <path d="m 251.69619,221.66136 a 132.29167,132.29167 0 0 1 -1.11536,2.28177 l -118.28916,-59.2348 z" fill="#11ff00"/>
    <path d="m 250.68403,223.73658 a 132.29167,132.29167 0 0 1 -1.15501,2.26195 l -117.23735,-61.2902 z" fill="#0dff00"/>
    <path d="m 249.63582,225.79382 a 132.29167,132.29167 0 0 1 -1.19431,2.24145 L 132.29167,164.70833 Z" fill="#09ff00"/>
    <path d="m 248.55186,227.83246 a 132.29167,132.29167 0 0 1 -1.23325,2.22026 L 132.29167,164.70833 Z" fill="#04ff00"/>
    <path d="m 247.43248,229.85186 a 132.29167,132.29167 0 0 1 -1.27181,2.19841 l -113.869,-67.34194 z" fill="#00ff00"/>
    <path d="m 246.27803,231.85143 a 132.29167,132.29167 0 0 1 -1.30998,2.17587 L 132.29167,164.70833 Z" fill="#00ff04"/>
    <path d="m 245.08886,233.83054 a 132.29167,132.29167 0 0 1 -1.34775,2.15268 L 132.29167,164.70833 Z" fill="#00ff09"/>
    <path d="m 243.86534,235.78859 a 132.29167,132.29167 0 0 1 -1.38512,2.12883 L 132.29167,164.70833 Z" fill="#00ff0d"/>
    <path d="m 242.60782,237.72499 a 132.29167,132.29167 0 0 1 -1.42206,2.10434 l -108.89409,-75.121 z" fill="#00ff11"/>
    <path d="m 241.3167,239.63916 a 132.29167,132.29167 0 0 1 -1.45857,2.07919 L 132.29167,164.70833 Z" fill="#00ff15"/>
    <path d="m 239.99238,241.53049 a 132.29167,132.29167 0 0 1 -1.49464,2.05342 L 132.29167,164.70833 Z" fill="#00ff1a"/>
    <path d="m 238.63524,243.39843 a 132.29167,132.29167 0 0 1 -1.53025,2.02702 L 132.29167,164.70833 Z" fill="#00ff1e"/>
    <path d="m 237.24571,245.2424 a 132.29167,132.29167 0 0 1 -1.56539,2 L 132.29167,164.70833 Z" fill="#00ff22"/>
    <path d="m 235.82421,247.06183 a 132.29167,132.29167 0 0 1 -1.60005,1.97238 L 132.29167,164.70833 Z" fill="#00ff26"/>
    <path d="m 234.37118,248.85618 a 132.29167,132.29167 0 0 1 -1.63424,1.94416 L 132.29167,164.70833 Z" fill="#00ff2b"/>
    <path d="m 232.88705,250.6249 a 132.29167,132.29167 0 0 1 -1.66792,1.91534 l -98.92746,-87.83191 z" fill="#00ff2f"/>
    <path d="m 231.37228,252.36744 a 132.29167,132.29167 0 0 1 -1.70109,1.88594 l -97.37952,-89.54505 z" fill="#00ff33"/>
    <path d="m 229.82732,254.08329 a 132.29167,132.29167 0 0 1 -1.73374,1.85596 l -95.80191,-91.23092 z" fill="#00ff37"/>
    <path d="m 228.25266,255.77191 a 132.29167,132.29167 0 0 1 -1.76587,1.82542 l -94.19512,-92.889 z" fill="#00ff3c"/>
    <path d="m 226.64877,257.43279 a 132.29167,132.29167 0 0 1 -1.79747,1.79432 l -92.55963,-94.51878 z" fill="#00ff40"/>
    <path d="m 225.01613,259.06542 a 132.29167,132.29167 0 0 1 -1.8285,1.76269 l -90.89596,-96.11978 z" fill="#00ff44"/>
    <path d="m 223.35525,260.66932 a 132.29167,132.29167 0 0 1 -1.85899,1.7305 l -89.20459,-97.69149 z" fill="#00ff48"/>
    <path d="m 221.66663,262.24398 a 132.29167,132.29167 0 0 1 -1.88891,1.6978 l -87.48605,-99.23345 z" fill="#00ff4d"/>
    <path d="m 219.95079,263.78893 a 132.29167,132.29167 0 0 1 -1.91825,1.66457 L 132.29167,164.70833 Z" fill="#00ff51"/>
    <path d="m 218.20824,265.3037 a 132.29167,132.29167 0 0 1 -1.94701,1.63084 L 132.29167,164.70833 Z" fill="#00ff55"/>
    <path d="m 216.43952,266.78783 a 132.29167,132.29167 0 0 1 -1.97517,1.59662 L 132.29167,164.70833 Z" fill="#00ff59"/>
    <path d="m 214.64517,268.24087 a 132.29167,132.29167 0 0 1 -2.00273,1.5619 L 132.29167,164.70833 Z" fill="#00ff5e"/>
    <path d="m 212.82574,269.66237 a 132.29167,132.29167 0 0 1 -2.02969,1.5267 L 132.29167,164.70833 Z" fill="#00ff62"/>
    <path d="m 210.98177,271.0519 a 132.29167,132.29167 0 0 1 -2.05602,1.49105 L 132.29167,164.70833 Z" fill="#00ff66"/>
    <path d="m 209.11384,272.40903 a 132.29167,132.29167 0 0 1 -2.08174,1.45494 L 132.29167,164.70833 Z" fill="#00ff6a"/>
    <path d="m 207.2225,273.73336 a 132.29167,132.29167 0 0 1 -2.10681,1.41839 L 132.29167,164.70833 Z" fill="#00ff6f"/>
    <path d="m 205.30834,275.02448 a 132.29167,132.29167 0 0 1 -2.13124,1.3814 L 132.29167,164.70833 Z" fill="#00ff73"/>
    <path d="m 203.37194,276.28199 a 132.29167,132.29167 0 0 1 -2.15503,1.344 L 132.29167,164.70833 Z" fill="#00ff77"/>
    <path d="m 201.41388,277.50552 a 132.29167,132.29167 0 0 1 -2.17815,1.30618 L 132.29167,164.70833 Z" fill="#00ff7b"/>
    <path d="m 199.43477,278.69469 a 132.29167,132.29167 0 0 1 -2.20062,1.26797 L 132.29167,164.70833 Z" fill="#00ff80"/>
    <path d="m 197.43521,279.84914 a 132.29167,132.29167 0 0 1 -2.22241,1.22937 L 132.29167,164.70833 Z" fill="#00ff84"/>
    <path d="m 195.4158,280.96851 a 132.29167,132.29167 0 0 1 -2.24353,1.1904 l -60.8806,-117.45058 z" fill="#00ff88"/>
    <path d="m 193.37717,282.05248 a 132.29167,132.29167 0 0 1 -2.26397,1.15105 l -58.82153,-118.4952 z" fill="#00ff8c"/>
    <path d="m 191.31992,283.10069 a 132.29167,132.29167 0 0 1 -2.2837,1.11137 L 132.29167,164.70833 Z" fill="#00ff91"/>
    <path d="m 189.2447,284.11285 a 132.29167,132.29167 0 0 1 -2.30275,1.07134 L 132.29167,164.70833 Z" fill="#00ff95"/>
    <path d="m 187.15213,285.08863 a 132.29167,132.29167 0 0 1 -2.3211,1.03099 L 132.29167,164.70833 Z" fill="#00ff99"/>
    <path d="m 185.04285,286.02774 a 132.29167,132.29167 0 0 1 -2.33874,0.99033 L 132.29167,164.70833 Z" fill="#00ff9d"/>
    <path d="m 182.91751,286.92989 a 132.29167,132.29167 0 0 1 -2.35568,0.94937 L 132.29167,164.70833 Z" fill="#00ffa2"/>
    <path d="m 180.77674,287.79482 a 132.29167,132.29167 0 0 1 -2.37189,0.90811 l -46.11318,-123.9946 z" fill="#00ffa6"/>
    <path d="m 178.6212,288.62226 a 132.29167,132.29167 0 0 1 -2.38738,0.86657 l -43.94215,-124.7805 z" fill="#00ffaa"/>
    <path d="m 176.45154,289.41195 a 132.29167,132.29167 0 0 1 -2.40212,0.82477 L 132.29167,164.70833 Z" fill="#00ffae"/>
    <path d="m 174.26844,290.16365 a 132.29167,132.29167 0 0 1 -2.41616,0.78273 L 132.29167,164.70833 Z" fill="#00ffb3"/>
    <path d="m 172.07255,290.87714 a 132.29167,132.29167 0 0 1 -2.42945,0.74044 L 132.29167,164.70833 Z" fill="#00ffb7"/>
    <path d="m 169.86454,291.55219 a 132.29167,132.29167 0 0 1 -2.442,0.69793 L 132.29167,164.70833 Z" fill="#00ffbb"/>
    <path d="m 167.64508,292.18861 a 132.29167,132.29167 0 0 1 -2.45381,0.6552 l -32.8996,-128.13548 z" fill="#00ffbf"/>
    <path d="m 165.41486,292.7862 a 132.29167,132.29167 0 0 1 -2.46487,0.61228 L 132.29167,164.70833 Z" fill="#00ffc4"/>
    <path d="m 163.17455,293.34477 a 132.29167,132.29167 0 0 1 -2.47518,0.56917 l -28.4077,-129.20561 z" fill="#00ffc8"/>
    <path d="m 160.92483,293.86416 a 132.29167,132.29167 0 0 1 -2.48474,0.52588 L 132.29167,164.70833 Z" fill="#00ffcc"/>
    <path d="m 158.66638,294.34421 a 132.29167,132.29167 0 0 1 -2.49353,0.48243 L 132.29167,164.70833 Z" fill="#00ffd0"/>
    <path d="m 156.39991,294.78476 a 132.29167,132.29167 0 0 1 -2.50158,0.43885 L 132.29167,164.70833 Z" fill="#00ffd5"/>
    <path d="m 154.1261,295.1857 a 132.29167,132.29167 0 0 1 -2.50886,0.39512 L 132.29167,164.70833 Z" fill="#00ffd9"/>
    <path d="m 151.84563,295.54689 a 132.29167,132.29167 0 0 1 -2.51538,0.35127 L 132.29167,164.70833 Z" fill="#00ffdd"/>
    <path d="m 149.5592,295.86823 a 132.29167,132.29167 0 0 1 -2.52112,0.30732 L 132.29167,164.70833 Z" fill="#00ffe1"/>
    <path d="m 147.26752,296.14961 a 132.29167,132.29167 0 0 1 -2.5261,0.26327 L 132.29167,164.70833 Z" fill="#00ffe6"/>
    <path d="m 144.97127,296.39096 a 132.29167,132.29167 0 0 1 -2.5303,0.21914 l -10.1493,-131.90177 z" fill="#00ffea"/>
    <path d="m 142.67116,296.59219 a 132.29167,132.29167 0 0 1 -2.53374,0.17495 l -7.84575,-132.05881 z" fill="#00ffee"/>
    <path d="m 140.36789,296.75325 a 132.29167,132.29167 0 0 1 -2.53641,0.13071 l -5.53981,-132.17563 z" fill="#00fff2"/>
    <path d="m 138.06215,296.87409 a 132.29167,132.29167 0 0 1 -2.5383,0.0864 l -3.23218,-132.25218 z" fill="#00fff7"/>
    <path d="m 135.75466,296.95467 a 132.29167,132.29167 0 0 1 -2.53942,0.0421 l -0.92357,-132.28845 z" fill="#00fffb"/>
    <path d="m 133.44612,296.99496 a 132.29167,132.29167 0 0 1 -2.53978,-0.002 l 1.38533,-132.28442 z" fill="#00ffff"/>
    <path d="m 131.13722,296.99496 a 132.29167,132.29167 0 0 1 -2.53935,-0.0465 l 3.6938,-132.24009 z" fill="#00fbff"/>
    <path d="m 128.82867,296.95467 a 132.29167,132.29167 0 0 1 -2.53815,-0.0909 l 6.00115,-132.15548 z" fill="#00f7ff"/>
    <path d="m 126.52118,296.87409 a 132.29167,132.29167 0 0 1 -2.53617,-0.13514 l 8.30666,-132.03062 z" fill="#00f2ff"/>
    <path d="m 124.21545,296.75325 a 132.29167,132.29167 0 0 1 -2.53343,-0.17938 l 10.60965,-131.86554 z" fill="#00eeff"/>
    <path d="m 121.91219,296.59219 a 132.29167,132.29167 0 0 1 -2.52993,-0.22357 l 12.90941,-131.66029 z" fill="#00eaff"/>
    <path d="m 119.61208,296.39096 a 132.29167,132.29167 0 0 1 -2.52564,-0.26769 l 15.20523,-131.41494 z" fill="#00e6ff"/>
    <path d="m 117.31583,296.14961 a 132.29167,132.29167 0 0 1 -2.52057,-0.31172 l 17.49641,-131.12956 z" fill="#00e1ff"/>
    <path d="m 115.02415,295.86823 a 132.29167,132.29167 0 0 1 -2.51475,-0.35567 l 19.78227,-130.80423 z" fill="#00ddff"/>
    <path d="m 112.73772,295.54689 a 132.29167,132.29167 0 0 1 -2.50816,-0.3995 l 22.06211,-130.43906 z" fill="#00d9ff"/>
    <path d="m 110.45725,295.1857 a 132.29167,132.29167 0 0 1 -2.50081,-0.44321 l 24.33523,-130.03416 z" fill="#00d5ff"/>
    <path d="m 108.18343,294.78476 a 132.29167,132.29167 0 0 1 -2.49269,-0.48678 l 26.60093,-129.58965 z" fill="#00d0ff"/>
    <path d="m 105.91695,294.34421 a 132.29167,132.29167 0 0 1 -2.48381,-0.53022 l 28.85853,-129.10566 z" fill="#00ccff"/>
    <path d="m 103.65851,293.86416 a 132.29167,132.29167 0 0 1 -2.47418,-0.57349 l 31.10734,-128.58234 z" fill="#00c8ff"/>
    <path d="m 101.40879,293.34477 a 132.29167,132.29167 0 0 1 -2.463795,-0.61658 L 132.29167,164.70833 Z" fill="#00c4ff"/>
    <path d="m 99.168478,292.7862 a 132.29167,132.29167 0 0 1 -2.45266,-0.65949 L 132.29167,164.70833 Z" fill="#00bfff"/>
    <path d="m 96.938255,292.18861 a 132.29167,132.29167 0 0 1 -2.440777,-0.70219 L 132.29167,164.70833 Z" fill="#00bbff"/>
    <path d="M 94.718801,291.55219 A 132.29167,132.29167 0 0 1 92.29065,290.80751 L 132.29167,164.70833 Z" fill="#00b7ff"/>
    <path d="m 92.510805,290.87714 a 132.29167,132.29167 0 0 1 -2.414798,-0.78695 L 132.29167,164.70833 Z" fill="#00b3ff"/>
    <path d="m 90.314913,290.16365 a 132.29167,132.29167 0 0 1 -2.400695,-0.82897 L 132.29167,164.70833 Z" fill="#00aeff"/>
    <path d="m 88.131808,289.41195 a 132.29167,132.29167 0 0 1 -2.385862,-0.87074 L 132.29167,164.70833 Z" fill="#00aaff"/>
    <path d="m 85.962155,288.62226 a 132.29167,132.29167 0 0 1 -2.37029,-0.91224 L 132.29167,164.70833 Z" fill="#00a6ff"/>
    <path d="m 83.806614,287.79482 a 132.29167,132.29167 0 0 1 -2.354008,-0.95347 L 132.29167,164.70833 Z" fill="#00a2ff"/>
    <path d="m 81.665842,286.9299 a 132.29167,132.29167 0 0 1 -2.337009,-0.99441 L 132.29167,164.70833 Z" fill="#009dff"/>
    <path d="m 79.540491,286.02774 a 132.29167,132.29167 0 0 1 -2.319298,-1.03505 L 132.29167,164.70833 Z" fill="#0099ff"/>
    <path d="m 77.431209,285.08863 a 132.29167,132.29167 0 0 1 -2.300881,-1.07537 L 132.29167,164.70833 Z" fill="#0095ff"/>
    <path d="m 75.338637,284.11284 a 132.29167,132.29167 0 0 1 -2.281763,-1.11535 L 132.29167,164.70833 Z" fill="#0091ff"/>
    <path d="m 73.263415,283.10069 a 132.29167,132.29167 0 0 1 -2.26195,-1.15501 L 132.29167,164.70833 Z" fill="#008cff"/>
    <path d="m 71.206172,282.05247 a 132.29167,132.29167 0 0 1 -2.241447,-1.19431 L 132.29167,164.70833 Z" fill="#0088ff"/>
    <path d="m 69.167537,280.96851 a 132.29167,132.29167 0 0 1 -2.220262,-1.23324 L 132.29167,164.70833 Z" fill="#0084ff"/>
    <path d="m 67.148131,279.84914 a 132.29167,132.29167 0 0 1 -2.198402,-1.27181 l 67.341941,-113.869 z" fill="#0080ff"/>
    <path d="m 65.148579,278.69469 a 132.29167,132.29167 0 0 1 -2.175882,-1.30998 L 132.29167,164.70833 Z" fill="#007bff"/>
    <path d="M 63.169468,277.50552 A 132.29167,132.29167 0 0 1 61.01678,276.15776 L 132.29167,164.70833 Z" fill="#0077ff"/>
    <path d="m 61.211412,276.28199 a 132.29167,132.29167 0 0 1 -2.128838,-1.38512 L 132.29167,164.70833 Z" fill="#0072ff"/>
    <path d="m 59.275008,275.02448 a 132.29167,132.29167 0 0 1 -2.104329,-1.42206 L 132.29167,164.70833 Z" fill="#006fff"/>
    <path d="m 57.360846,273.73336 a 132.29167,132.29167 0 0 1 -2.079191,-1.45857 L 132.29167,164.70833 Z" fill="#006aff"/>
    <path d="M 55.469508,272.40903 A 132.29167,132.29167 0 0 1 53.41609,270.9144 l 78.87558,-106.20607 z" fill="#0066ff"/>
    <path d="m 53.601571,271.0519 a 132.29167,132.29167 0 0 1 -2.02702,-1.53025 L 132.29167,164.70833 Z" fill="#0062ff"/>
    <path d="m 51.757604,269.66237 a 132.29167,132.29167 0 0 1 -2.000005,-1.56539 L 132.29167,164.70833 Z" fill="#005eff"/>
    <path d="m 49.938169,268.24087 a 132.29167,132.29167 0 0 1 -1.972381,-1.60006 L 132.29167,164.70833 Z" fill="#0059ff"/>
    <path d="M 48.143819,266.78783 A 132.29167,132.29167 0 0 1 46.199663,265.1536 L 132.29167,164.70833 Z" fill="#0055ff"/>
    <path d="m 46.375101,265.3037 a 132.29167,132.29167 0 0 1 -1.915338,-1.66791 l 87.831907,-98.92746 z" fill="#0051ff"/>
    <path d="m 44.632555,263.78893 a 132.29167,132.29167 0 0 1 -1.885938,-1.70109 l 89.545053,-97.37951 z" fill="#004dff"/>
    <path d="m 42.91671,262.24398 a 132.29167,132.29167 0 0 1 -1.855962,-1.73375 l 91.230922,-95.8019 z" fill="#0048ff"/>
    <path d="m 41.22809,260.66931 a 132.29167,132.29167 0 0 1 -1.825422,-1.76587 l 92.889002,-94.19511 z" fill="#0044ff"/>
    <path d="m 39.567218,259.06543 a 132.29167,132.29167 0 0 1 -1.794335,-1.79747 l 94.518787,-92.55963 z" fill="#0040ff"/>
    <path d="m 37.934581,257.43279 a 132.29167,132.29167 0 0 1 -1.762691,-1.82851 l 96.11978,-90.89595 z" fill="#003cff"/>
    <path d="m 36.330686,255.77191 a 132.29167,132.29167 0 0 1 -1.73051,-1.859 l 97.691494,-89.20458 z" fill="#0037ff"/>
    <path d="m 34.756022,254.08329 a 132.29167,132.29167 0 0 1 -1.697794,-1.88891 l 99.233442,-87.48605 z" fill="#0033ff"/>
    <path d="m 33.211069,252.36744 a 132.29167,132.29167 0 0 1 -1.66457,-1.91824 L 132.29167,164.70833 Z" fill="#002fff"/>
    <path d="m 31.696296,250.6249 a 132.29167,132.29167 0 0 1 -1.630838,-1.94701 L 132.29167,164.70833 Z" fill="#002bff"/>
    <path d="m 30.212166,248.85618 a 132.29167,132.29167 0 0 1 -1.59661,-1.97517 L 132.29167,164.70833 Z" fill="#0026ff"/>
    <path d="m 28.75913,247.06183 a 132.29167,132.29167 0 0 1 -1.561895,-2.00274 L 132.29167,164.70833 Z" fill="#0022ff"/>
    <path d="m 27.337631,245.24239 a 132.29167,132.29167 0 0 1 -1.526705,-2.02968 L 132.29167,164.70833 Z" fill="#001eff"/>
    <path d="M 25.948102,243.39843 A 132.29167,132.29167 0 0 1 24.457053,241.3424 L 132.29167,164.70833 Z" fill="#001aff"/>
    <path d="m 24.590966,241.53049 a 132.29167,132.29167 0 0 1 -1.454939,-2.08173 L 132.29167,164.70833 Z" fill="#0015ff"/>
    <path d="m 23.266638,239.63915 a 132.29167,132.29167 0 0 1 -1.418387,-2.10681 L 132.29167,164.70833 Z" fill="#0011ff"/>
    <path d="m 21.975519,237.72499 a 132.29167,132.29167 0 0 1 -1.381402,-2.13124 L 132.29167,164.70833 Z" fill="#000dff"/>
    <path d="m 20.718011,235.7886 a 132.29167,132.29167 0 0 1 -1.344003,-2.15504 L 132.29167,164.70833 Z" fill="#0009ff"/>
    <path d="m 19.494482,233.83054 a 132.29167,132.29167 0 0 1 -1.306188,-2.17816 L 132.29167,164.70833 Z" fill="#0004ff"/>
    <path d="M 18.305312,231.85143 A 132.29167,132.29167 0 0 1 17.037337,229.6508 L 132.29167,164.70833 Z" fill="#0000ff"/>
    <path d="m 17.150863,229.85187 a 132.29167,132.29167 0 0 1 -1.229369,-2.22241 L 132.29167,164.70833 Z" fill="#0400ff"/>
    <path d="m 16.031488,227.83246 a 132.29167,132.29167 0 0 1 -1.190395,-2.24353 l 117.450577,-60.8806 z" fill="#0900ff"/>
    <path d="m 14.947526,225.79383 a 132.29167,132.29167 0 0 1 -1.151059,-2.26397 L 132.29167,164.70833 Z" fill="#0d00ff"/>
    <path d="m 13.899309,223.73658 a 132.29167,132.29167 0 0 1 -1.111372,-2.2837 L 132.29167,164.70833 Z" fill="#1100ff"/>
    <path d="m 12.887155,221.66136 a 132.29167,132.29167 0 0 1 -1.071346,-2.30275 L 132.29167,164.70833 Z" fill="#1500ff"/>
    <path d="m 11.911373,219.56879 a 132.29167,132.29167 0 0 1 -1.030994,-2.3211 L 132.29167,164.70833 Z" fill="#1a00ff"/>
    <path d="M 10.97226,217.45951 A 132.29167,132.29167 0 0 1 9.9819314,215.12077 L 132.29167,164.70833 Z" fill="#1e00ff"/>
    <path d="M 10.070102,215.33416 A 132.29167,132.29167 0 0 1 9.1207411,212.97849 L 132.29167,164.70833 Z" fill="#2200ff"/>
    <path d="M 9.2051745,213.19338 A 132.29167,132.29167 0 0 1 8.2970698,210.82151 L 132.29167,164.70833 Z" fill="#2600ff"/>
    <path d="M 8.37774,211.03784 A 132.29167,132.29167 0 0 1 7.5111686,208.65048 L 132.29167,164.70833 Z" fill="#2b00ff"/>
    <path d="M 7.5880552,208.8682 A 132.29167,132.29167 0 0 1 6.7632767,206.46606 L 132.29167,164.70833 Z" fill="#2f00ff"/>
    <path d="M 6.8363518,206.6851 A 132.29167,132.29167 0 0 1 6.053622,204.26893 l 126.238048,-39.5606 z" fill="#3300ff"/>
    <path d="M 6.1228633,204.48921 A 132.29167,132.29167 0 0 1 5.3824207,202.05975 L 132.29167,164.70833 Z" fill="#3700ff"/>
    <path d="m 5.4478071,202.2812 a 132.29167,132.29167 0 0 1 -0.6979264,-2.442 L 132.29167,164.70833 Z" fill="#3c00ff"/>
    <path d="M 4.8113888,200.06174 A 132.29167,132.29167 0 0 1 4.1561875,197.60793 L 132.29167,164.70833 Z" fill="#4000ff"/>
    <path d="M 4.2138023,197.83152 A 132.29167,132.29167 0 0 1 3.6015256,195.36665 L 132.29167,164.70833 Z" fill="#4400ff"/>
    <path d="M 3.6552296,195.59121 A 132.29167,132.29167 0 0 1 3.086064,193.11603 l 129.205606,-28.4077 z" fill="#4800ff"/>
    <path d="m 3.1358408,193.34149 a 132.29167,132.29167 0 0 1 -0.525881,-2.48474 L 132.29167,164.70833 Z" fill="#4d00ff"/>
    <path d="M 2.6557941,191.08304 A 132.29167,132.29167 0 0 1 2.1733579,188.58951 L 132.29167,164.70833 Z" fill="#5100ff"/>
    <path d="M 2.2152358,188.81657 A 132.29167,132.29167 0 0 1 1.7763913,186.31499 L 132.29167,164.70833 Z" fill="#5500ff"/>
    <path d="M 1.8143001,186.54275 A 132.29167,132.29167 0 0 1 1.4191809,184.0339 L 132.29167,164.70833 Z" fill="#5900ff"/>
    <path d="M 1.4531092,184.26228 A 132.29167,132.29167 0 0 1 1.1018357,181.74691 L 132.29167,164.70833 Z" fill="#5e00ff"/>
    <path d="M 1.1317729,181.97585 A 132.29167,132.29167 0 0 1 0.82445212,179.45474 L 132.29167,164.70833 Z" fill="#6200ff"/>
    <path d="M 0.85038924,179.68416 A 132.29167,132.29167 0 0 1 0.5871148,177.15807 L 132.29167,164.70833 Z" fill="#6600ff"/>
    <path d="M 0.60904518,177.38793 A 132.29167,132.29167 0 0 1 0.38989599,174.85761 L 132.29167,164.70833 Z" fill="#6a00ff"/>
    <path d="M 0.40781146,175.08782 A 132.29167,132.29167 0 0 1 0.23285579,172.55406 L 132.29167,164.70833 Z" fill="#6f00ff"/>
    <path d="M 0.24675088,172.78455 A 132.29167,132.29167 0 0 1 0.116042,170.24812 l 132.175628,-5.53979 z" fill="#7300ff"/>
    <path d="m 0.12591249,170.47881 a 132.29167,132.29167 0 0 1 -0.08642193,-2.5383 L 132.29167,164.70833 Z" fill="#7700ff"/>
    <path d="M 0.0453331,168.17132 A 132.29167,132.29167 0 0 1 0.00322389,165.6319 L 132.29167,164.70833 Z" fill="#7b00ff"/>
    <path d="M 0.00503727,165.86278 A 132.29167,132.29167 0 0 1 0.0072536,163.323 l 132.2844164,1.38533 z" fill="#8000ff"/>
    <path d="m 0.00503726,163.55388 a 132.29167,132.29167 0 0 1 0.04654119,-2.53935 l 132.24009155,3.6938 z" fill="#8400ff"/>
    <path d="m 0.04533308,161.24533 a 132.29167,132.29167 0 0 1 0.09085188,-2.53815 L 132.29167,164.70833 Z" fill="#8800ff"/>
    <path d="m 0.12591245,158.93784 a 132.29167,132.29167 0 0 1 0.13513489,-2.53617 L 132.29167,164.70833 Z" fill="#8c00ff"/>
    <path d="m 0.24675082,156.63211 a 132.29167,132.29167 0 0 1 0.17937674,-2.53343 L 132.29167,164.70833 Z" fill="#9100ff"/>
    <path d="m 0.40781139,154.32884 a 132.29167,132.29167 0 0 1 0.22356395,-2.52992 L 132.29167,164.70833 Z" fill="#9500ff"/>
    <path d="M 0.60904509,152.02873 A 132.29167,132.29167 0 0 1 0.87672816,149.5031 L 132.29167,164.70833 Z" fill="#9900ff"/>
    <path d="M 0.85039063,149.73248 A 132.29167,132.29167 0 0 1 1.1621113,147.21191 L 132.29167,164.70833 Z" fill="#9d00ff"/>
    <path d="m 1.1317728,147.44081 a 132.29167,132.29167 0 0 1 0.355665,-2.51477 L 132.29167,164.70833 Z" fill="#a200ff"/>
    <path d="m 1.453109,145.15438 a 132.29167,132.29167 0 0 1 0.3994995,-2.50817 L 132.29167,164.70833 Z" fill="#a600ff"/>
    <path d="m 1.8143,142.87391 a 132.29167,132.29167 0 0 1 0.4432123,-2.50082 L 132.29167,164.70833 Z" fill="#aa00ff"/>
    <path d="M 2.2152357,140.60009 A 132.29167,132.29167 0 0 1 2.7020231,138.1074 L 132.29167,164.70833 Z" fill="#ae00ff"/>
    <path d="M 2.6557939,138.33361 A 132.29167,132.29167 0 0 1 3.1860107,135.8498 L 132.29167,164.70833 Z" fill="#b300ff"/>
    <path d="m 3.1358406,136.07517 a 132.29167,132.29167 0 0 1 0.5734845,-2.47418 L 132.29167,164.70833 Z" fill="#b700ff"/>
    <path d="m 3.6552293,133.82545 a 132.29167,132.29167 0 0 1 0.6165777,-2.4638 l 128.019863,33.34668 z" fill="#bb00ff"/>
    <path d="M 4.2138021,131.58514 A 132.29167,132.29167 0 0 1 4.873285,129.13248 L 132.29167,164.70833 Z" fill="#bf00ff"/>
    <path d="m 4.8113886,129.35492 a 132.29167,132.29167 0 0 1 0.7021873,-2.44078 L 132.29167,164.70833 Z" fill="#c400ff"/>
    <path d="m 5.4478069,127.13546 a 132.29167,132.29167 0 0 1 0.7446778,-2.42815 L 132.29167,164.70833 Z" fill="#c800ff"/>
    <path d="m 6.122863,124.92745 a 132.29167,132.29167 0 0 1 0.7869416,-2.41478 L 132.29167,164.70833 Z" fill="#cc00ff"/>
    <path d="M 6.8363515,122.73156 A 132.29167,132.29167 0 0 1 7.665317,120.33088 L 132.29167,164.70833 Z" fill="#d000ff"/>
    <path d="m 7.5880549,120.54846 a 132.29167,132.29167 0 0 1 0.870737,-2.38585 L 132.29167,164.70833 Z" fill="#d500ff"/>
    <path d="m 8.3777443,118.3788 a 132.29167,132.29167 0 0 1 0.9122431,-2.37029 L 132.29167,164.70833 Z" fill="#d900ff"/>
    <path d="m 9.2051742,116.22327 a 132.29167,132.29167 0 0 1 0.9534768,-2.35402 l 122.133019,50.83908 z" fill="#dd00ff"/>
    <path d="m 10.070102,114.0825 a 132.29167,132.29167 0 0 1 0.994415,-2.33702 l 121.227153,52.96285 z" fill="#e100ff"/>
    <path d="m 10.97226,111.95715 a 132.29167,132.29167 0 0 1 1.035044,-2.3193 l 120.284366,55.07048 z" fill="#e600ff"/>
    <path d="m 11.911373,109.84787 a 132.29167,132.29167 0 0 1 1.075364,-2.30088 l 119.304933,57.16134 z" fill="#ea00ff"/>
    <path d="m 12.887155,107.7553 a 132.29167,132.29167 0 0 1 1.115356,-2.28177 l 118.289159,59.2348 z" fill="#ee00ff"/>
    <path d="m 13.899309,105.68007 a 132.29167,132.29167 0 0 1 1.155008,-2.26195 l 117.237353,61.29021 z" fill="#f200ff"/>
    <path d="m 14.947526,103.62283 a 132.29167,132.29167 0 0 1 1.194309,-2.24145 l 116.149835,63.32695 z" fill="#f700ff"/>
    <path d="m 16.031487,101.5842 a 132.29167,132.29167 0 0 1 1.233246,-2.220266 L 132.29167,164.70833 Z" fill="#fb00ff"/>
    <path d="m 17.150863,99.56479 a 132.29167,132.29167 0 0 1 1.271807,-2.198401 l 113.869,67.341941 z" fill="#ff00ff"/>
    <path d="m 18.305311,97.565227 a 132.29167,132.29167 0 0 1 1.309981,-2.175871 L 132.29167,164.70833 Z" fill="#ff00fb"/>
    <path d="m 19.494481,95.586116 a 132.29167,132.29167 0 0 1 1.347756,-2.152677 L 132.29167,164.70833 Z" fill="#ff00f7"/>
    <path d="m 20.71801,93.62806 a 132.29167,132.29167 0 0 1 1.38512,-2.128827 l 110.18854,73.209097 z" fill="#ff00f2"/>
    <path d="m 21.975526,91.691657 a 132.29167,132.29167 0 0 1 1.422061,-2.10433 L 132.29167,164.70833 Z" fill="#ff00ee"/>
    <path d="m 23.266637,89.777505 a 132.29167,132.29167 0 0 1 1.458578,-2.079201 L 132.29167,164.70833 Z" fill="#ff00ea"/>
    <path d="m 24.590966,87.886168 a 132.29167,132.29167 0 0 1 1.494643,-2.053429 L 132.29167,164.70833 Z" fill="#ff00e6"/>
    <path d="M 25.948101,86.018231 A 132.29167,132.29167 0 0 1 27.478354,83.9912 l 104.813316,80.71713 z" fill="#ff00e1"/>
    <path d="m 27.33763,84.174264 a 132.29167,132.29167 0 0 1 1.565388,-2.000006 L 132.29167,164.70833 Z" fill="#ff00dd"/>
    <path d="m 28.759129,82.354828 a 132.29167,132.29167 0 0 1 1.600055,-1.972381 L 132.29167,164.70833 Z" fill="#ff00d9"/>
    <path d="m 30.212165,80.560478 a 132.29167,132.29167 0 0 1 1.634234,-1.944156 L 132.29167,164.70833 Z" fill="#ff00d5"/>
    <path d="m 31.696295,78.79176 a 132.29167,132.29167 0 0 1 1.667915,-1.915338 l 98.92746,87.831908 z" fill="#ff00d0"/>
    <path d="m 33.211068,77.049214 a 132.29167,132.29167 0 0 1 1.701088,-1.885938 l 97.379514,89.545054 z" fill="#ff00cc"/>
    <path d="m 34.756022,75.333369 a 132.29167,132.29167 0 0 1 1.733743,-1.855962 l 95.801905,91.230923 z" fill="#ff00c8"/>
    <path d="m 36.330686,73.644749 a 132.29167,132.29167 0 0 1 1.76587,-1.825422 l 94.195114,92.889003 z" fill="#ff00c4"/>
    <path d="m 37.93458,71.983867 a 132.29167,132.29167 0 0 1 1.797459,-1.794325 l 92.559631,94.518788 z" fill="#ff00bf"/>
    <path d="m 39.567217,70.351231 a 132.29167,132.29167 0 0 1 1.828501,-1.762682 l 90.895952,96.119781 z" fill="#ff00bb"/>
    <path d="m 41.228098,68.747336 a 132.29167,132.29167 0 0 1 1.858986,-1.730501 l 89.204586,97.691495 z" fill="#ff00b7"/>
    <path d="m 42.916709,67.172681 a 132.29167,132.29167 0 0 1 1.888914,-1.697803 l 87.486047,99.233452 z" fill="#ff00b3"/>
    <path d="M 44.632554,65.627727 A 132.29167,132.29167 0 0 1 46.55081,63.963149 L 132.29167,164.70833 Z" fill="#ff00ae"/>
    <path d="m 46.3751,64.112955 a 132.29167,132.29167 0 0 1 1.947016,-1.630847 L 132.29167,164.70833 Z" fill="#ff00aa"/>
    <path d="m 48.143818,62.628824 a 132.29167,132.29167 0 0 1 1.975171,-1.596609 L 132.29167,164.70833 Z" fill="#ff00a6"/>
    <path d="m 49.938168,61.175788 a 132.29167,132.29167 0 0 1 2.002734,-1.561895 L 132.29167,164.70833 Z" fill="#ff00a2"/>
    <path d="m 51.757603,59.754289 a 132.29167,132.29167 0 0 1 2.029689,-1.526704 L 132.29167,164.70833 Z" fill="#ff009d"/>
    <path d="m 53.601571,58.364761 a 132.29167,132.29167 0 0 1 2.056023,-1.49105 L 132.29167,164.70833 Z" fill="#ff0099"/>
    <path d="m 55.469507,57.007625 a 132.29167,132.29167 0 0 1 2.081733,-1.45494 l 74.74043,109.155645 z" fill="#ff0095"/>
    <path d="M 57.360845,55.683296 A 132.29167,132.29167 0 0 1 59.467653,54.26491 L 132.29167,164.70833 Z" fill="#ff0091"/>
    <path d="m 59.275007,54.392177 a 132.29167,132.29167 0 0 1 2.131242,-1.381401 L 132.29167,164.70833 Z" fill="#ff008c"/>
    <path d="m 61.211411,53.134662 a 132.29167,132.29167 0 0 1 2.155026,-1.343996 L 132.29167,164.70833 Z" fill="#ff0088"/>
    <path d="m 63.169467,51.911133 a 132.29167,132.29167 0 0 1 2.178154,-1.306181 L 132.29167,164.70833 Z" fill="#ff0084"/>
    <path d="m 65.148578,50.721963 a 132.29167,132.29167 0 0 1 2.200618,-1.267968 L 132.29167,164.70833 Z" fill="#ff0080"/>
    <path d="m 67.148141,49.567515 a 132.29167,132.29167 0 0 1 2.222412,-1.229369 L 132.29167,164.70833 Z" fill="#ff007b"/>
    <path d="m 69.167537,48.448146 a 132.29167,132.29167 0 0 1 2.24354,-1.190401 L 132.29167,164.70833 Z" fill="#ff0077"/>
    <path d="M 71.206172,47.364184 A 132.29167,132.29167 0 0 1 73.470146,46.21312 L 132.29167,164.70833 Z" fill="#ff0073"/>
    <path d="m 73.263414,46.315967 a 132.29167,132.29167 0 0 1 2.283718,-1.111378 L 132.29167,164.70833 Z" fill="#ff006f"/>
    <path d="m 75.338637,45.303813 a 132.29167,132.29167 0 0 1 2.302754,-1.071346 L 132.29167,164.70833 Z" fill="#ff006a"/>
    <path d="m 77.431208,44.328031 a 132.29167,132.29167 0 0 1 2.321101,-1.030995 L 132.29167,164.70833 Z" fill="#ff0066"/>
    <path d="m 79.54049,43.388918 a 132.29167,132.29167 0 0 1 2.338741,-0.990329 L 132.29167,164.70833 Z" fill="#ff0062"/>
    <path d="m 81.665841,42.48676 a 132.29167,132.29167 0 0 1 2.355668,-0.949361 L 132.29167,164.70833 Z" fill="#ff005e"/>
    <path d="m 83.806613,41.621832 a 132.29167,132.29167 0 0 1 2.371878,-0.908104 L 132.29167,164.70833 Z" fill="#ff0059"/>
    <path d="M 85.962154,40.794398 A 132.29167,132.29167 0 0 1 88.34952,39.927826 L 132.29167,164.70833 Z" fill="#ff0055"/>
    <path d="m 88.131807,40.004708 a 132.29167,132.29167 0 0 1 2.402126,-0.824774 L 132.29167,164.70833 Z" fill="#ff0051"/>
    <path d="M 90.314912,39.253005 A 132.29167,132.29167 0 0 1 92.731067,38.47028 L 132.29167,164.70833 Z" fill="#ff004d"/>
    <path d="m 92.510804,38.539517 a 132.29167,132.29167 0 0 1 2.429447,-0.740439 L 132.29167,164.70833 Z" fill="#ff0048"/>
    <path d="m 94.718813,37.864461 a 132.29167,132.29167 0 0 1 2.441999,-0.697926 L 132.29167,164.70833 Z" fill="#ff0044"/>
    <path d="m 96.938254,37.228046 a 132.29167,132.29167 0 0 1 2.453821,-0.655204 L 132.29167,164.70833 Z" fill="#ff0040"/>
    <path d="m 99.168477,36.63046 a 132.29167,132.29167 0 0 1 2.464883,-0.61228 l 30.65831,128.69015 z" fill="#ff003c"/>
    <path d="m 101.40879,36.071887 a 132.29167,132.29167 0 0 1 2.47519,-0.569169 l 28.40769,129.205612 z" fill="#ff0037"/>
    <path d="m 103.65851,35.552498 a 132.29167,132.29167 0 0 1 2.48474,-0.525881 l 26.14842,129.681713 z" fill="#ff0033"/>
    <path d="m 105.91695,35.072451 a 132.29167,132.29167 0 0 1 2.49354,-0.482436 l 23.88118,130.118315 z" fill="#ff002f"/>
    <path d="M 108.18343,34.631893 A 132.29167,132.29167 0 0 1 110.685,34.193048 L 132.29167,164.70833 Z" fill="#ff002b"/>
    <path d="m 110.45725,34.230957 a 132.29167,132.29167 0 0 1 2.50885,-0.395119 l 19.32557,130.872492 z" fill="#ff0026"/>
    <path d="m 112.73772,33.869766 a 132.29167,132.29167 0 0 1 2.51536,-0.351273 l 17.03859,131.189837 z" fill="#ff0022"/>
    <path d="m 115.02415,33.54843 a 132.29167,132.29167 0 0 1 2.52111,-0.307321 l 14.74641,131.467221 z" fill="#ff001e"/>
    <path d="m 117.31583,33.267046 a 132.29167,132.29167 0 0 1 2.5261,-0.263274 l 12.44974,131.704558 z" fill="#ff001a"/>
    <path d="m 119.61208,33.025701 a 132.29167,132.29167 0 0 1 2.5303,-0.219148 l 10.14929,131.901777 z" fill="#ff0015"/>
    <path d="m 121.91219,32.824467 a 132.29167,132.29167 0 0 1 2.53374,-0.174955 l 7.84574,132.058818 z" fill="#ff0011"/>
    <path d="m 124.21546,32.663407 a 132.29167,132.29167 0 0 1 2.53641,-0.130708 l 5.5398,132.175631 z" fill="#ff000d"/>
    <path d="m 126.52118,32.542569 a 132.29167,132.29167 0 0 1 2.53832,-0.08642 l 3.23217,132.252183 z" fill="#ff0009"/>
    <path d="m 128.82867,32.46199 a 132.29167,132.29167 0 0 1 2.53944,-0.04211 l 0.92356,132.28845 z" fill="#ff0004"/>
    <circle cx="132.29167" cy="164.70831" r="132.29167" fill="url(#b)"/>
  </g>
</svg>
